<svg xmlns="http://www.w3.org/2000/svg" viewBox="0 0 315 315" width="315" height="315">
	<defs>
		<clipPath clipPathUnits="userSpaceOnUse" id="cp1">
			<path d="M0 0L315 0L315 315L0 315Z" />
		</clipPath>
	</defs>
	<style>
		tspan { white-space:pre }
		.shp0 { fill: #000000 } 
	</style>
	<g id="Page 1" clip-path="url(#cp1)">
		<path id="Path 1" class="shp0" d="M185.39 157.46L309.31 33.54C317 25.85 317 13.38 309.31 5.69C301.62 -2 289.16 -2 281.46 5.69L157.54 129.61L33.62 5.69C25.93 -2 13.46 -2 5.77 5.69C-1.92 13.38 -1.92 25.85 5.77 33.54L129.69 157.46L5.77 281.38C-1.92 289.07 -1.92 301.54 5.77 309.23C9.61 313.08 14.65 315 19.69 315C24.73 315 29.77 313.08 33.62 309.23L157.54 185.31L281.46 309.23C285.31 313.08 290.35 315 295.39 315C300.43 315 305.46 313.08 309.31 309.23C317 301.54 317 289.07 309.31 281.38L185.39 157.46Z" />
	</g>
</svg>